<?xml version="1.0" encoding="iso-8859-1"?>
<!-- Generator: Adobe Illustrator 21.0.0, SVG Export Plug-In . SVG Version: 6.00 Build 0)  -->
<svg xmlns="http://www.w3.org/2000/svg" xmlns:xlink="http://www.w3.org/1999/xlink" version="1.1" id="Capa_1" x="0px" y="0px" viewBox="0 0 512 512" style="enable-background:new 0 0 512 512;" xml:space="preserve" width="512" height="512">
<g>
	<path style="fill:#2C3B73;" d="M227,361c-8.291,0-15-6.709-15-15v-30c0-8.291,6.709-15,15-15s15,6.709,15,15v30   C242,354.291,235.291,361,227,361z"/>
	<path style="fill:#2C3B73;" d="M45,361c-8.291,0-15-6.709-15-15v-30c0-8.291,6.709-15,15-15s15,6.709,15,15v30   C60,354.291,53.291,361,45,361z"/>
	<g>
		<path style="fill:#9BFCFF;" d="M372.84,188.764c-4.6-6.899-2.739-16.201,4.16-20.801l43.359-28.901    c6.885-4.614,16.201-2.739,20.801,4.16s2.739,16.201-4.16,20.801l-43.359,28.901C386.631,197.57,377.364,195.561,372.84,188.764z"/>
	</g>
	<g>
		<g>
			<path style="fill:#9BFCFF;" d="M325.32,238.48c-7.01,4.646-16.277,2.637-20.801-4.16c-4.6-6.899-2.739-16.201,4.16-20.801     l24.961-16.641c6.914-4.585,16.216-2.754,20.801,4.16c4.6,6.899,2.739,16.201-4.16,20.801L325.32,238.48z"/>
		</g>
	</g>
	<g>
		<path style="fill:#76E2F8;" d="M420.359,372.938L377,344.037c-6.899-4.6-8.76-13.901-4.16-20.801    c4.57-6.899,13.872-8.745,20.801-4.16L437,347.978c6.899,4.6,8.76,13.901,4.16,20.801    C436.636,375.576,427.369,377.585,420.359,372.938z"/>
	</g>
	<g>
		<g>
			<path style="fill:#76E2F8;" d="M333.641,315.121L308.68,298.48c-6.899-4.6-8.76-13.901-4.16-20.801     c4.57-6.914,13.872-8.745,20.801-4.16l24.961,16.641c6.899,4.6,8.76,13.901,4.16,20.801     C349.918,317.758,340.65,319.767,333.641,315.121z"/>
		</g>
	</g>
	<path style="fill:#76E2F8;" d="M495.749,387.138l-15.39-10.259c-6.929-4.614-16.216-2.739-20.801,4.16   c-4.6,6.899-2.739,16.201,4.16,20.801l24.961,16.641c2.183,1.447,4.636,1.935,7.07,2.144V387.138z"/>
	<path style="fill:#9BFCFF;" d="M495.749,91.271c-2.45,0.203-4.882,0.791-7.07,2.249l-24.961,16.641   c-6.899,4.6-8.76,13.901-4.16,20.801c2.886,4.336,7.646,6.68,12.495,6.68c2.856,0,5.742-0.82,8.306-2.52l15.39-10.259V91.271z"/>
	<path style="fill:#47568C;" d="M332,196v120c0,11.1-11.7,18.3-21.599,13.5l-60-30c-7.5-3.9-10.501-12.902-6.901-20.101v-46.8   c-3.6-7.2-0.599-16.199,6.901-20.099l60-30c4.499-2.1,10.199-2.1,14.399,0.601C329.299,186.099,332,190.899,332,196z"/>
	<path style="fill:#2C3B73;" d="M243.5,256H332v60c0,11.1-11.7,18.3-21.599,13.5l-60-30c-7.5-3.9-10.501-12.902-6.901-20.101V256z"/>
	<path style="fill:#F2F2FC;" d="M257,181H15c-8.401,0-15,6.599-15,15v120c0,8.399,6.599,15,15,15h242c8.401,0,15-6.601,15-15V196   C272,187.599,265.401,181,257,181z"/>
	<path style="fill:#D8D8FC;" d="M272,256v60c0,8.399-6.599,15-15,15H15c-8.401,0-15-6.601-15-15v-60H272z"/>
	<path style="fill:#47568C;" d="M181,256c0,8.399-6.599,15-15,15H75c-8.401,0-15-6.601-15-15c0-8.401,6.599-15,15-15h91   C174.401,241,181,247.599,181,256z"/>
	<path style="fill:#2C3B73;" d="M60,256h121c0,8.399-6.599,15-15,15H75C66.599,271,60,264.399,60,256z"/>
	<path style="fill:#D8D8FC;" d="M512,46v420c0,8.399-6.599,15-15,15s-15-6.601-15-15V46c0-8.401,6.599-15,15-15S512,37.599,512,46z"/>
	<path style="fill:#A3A3D1;" d="M512,256v210c0,8.399-6.599,15-15,15s-15-6.601-15-15V256H512z"/>
</g>















</svg>
